<svg width="14" height="19" viewBox="0 0 14 19" fill="none" xmlns="http://www.w3.org/2000/svg">
  <path d="M1.00024 16.5C1.00024 17.6 1.90024 18.5 3.00024 18.5H11.0002C12.1002 18.5 13.0002 17.6 13.0002 16.5V6.5C13.0002 5.4 12.1002 4.5 11.0002 4.5H3.00024C1.90024 4.5 1.00024 5.4 1.00024 6.5V16.5ZM13.0002 1.5H10.5002L9.79024 0.79C9.61024 0.61 9.35024 0.5 9.09024 0.5H4.91024C4.65024 0.5 4.39024 0.61 4.21024 0.79L3.50024 1.5H1.00024C0.450244 1.5 0.000244141 1.95 0.000244141 2.5C0.000244141 3.05 0.450244 3.5 1.00024 3.5H13.0002C13.5502 3.5 14.0002 3.05 14.0002 2.5C14.0002 1.95 13.5502 1.5 13.0002 1.5Z" fill="#C7C7C7"/>
  </svg>
  